<?xml version="1.0" encoding="UTF-8"?>
<svg width="180px" height="29px" viewBox="0 0 180 29" version="1.1" xmlns="http://www.w3.org/2000/svg" xmlns:xlink="http://www.w3.org/1999/xlink">
    <!-- Generator: Sketch 53.2 (72643) - https://sketchapp.com -->
    <title>Group 3</title>
    <desc>Created with Sketch.</desc>
    <defs>
        <polygon id="path-1" points="0 8.69565217e-05 179.953333 8.69565217e-05 179.953333 28.8104058 0 28.8104058"></polygon>
    </defs>
    <g id="Page-1" stroke="none" stroke-width="1" fill="none" fill-rule="evenodd">
        <g id="Desktop-HD" transform="translate(-232.000000, -31.000000)">
            <g id="Group-3" transform="translate(232.000000, 31.000000)">
                <mask id="mask-2" fill="white">
                    <use xlink:href="#path-1"></use>
                </mask>
                <g id="Clip-2"></g>
                <path d="M14.7505797,7.394 C14.7505797,6.89284058 14.3613043,6.48646377 13.8810145,6.48646377 L6.63463768,6.48646377 L6.63463768,8.51544928 L14.7505797,8.51544928 L14.7505797,7.394 Z M14.7505797,10.049942 L6.63463768,10.049942 L6.63463768,12.0789275 L13.8810145,12.0789275 C14.3613043,12.0789275 14.7505797,11.6725507 14.7505797,11.1711014 L14.7505797,10.049942 Z M22.4291304,27.2493623 C22.6769565,27.687913 22.3601449,28.2308116 21.8569565,28.2308116 L15.0821739,28.2308116 C14.8413043,28.2308116 14.6195652,28.0989275 14.5044928,27.8876232 L9.94362319,19.5067536 L7.19782609,19.5067536 L7.19782609,27.5731304 C7.19782609,27.9363188 6.90362319,28.2308116 6.54043478,28.2308116 L0.657536232,28.2308116 C0.294347826,28.2308116 -0.000144927536,27.9363188 -0.000144927536,27.5731304 L-0.000144927536,0.978347826 C-0.000144927536,0.61515942 0.294347826,0.320956522 0.657536232,0.320956522 L11.5030435,0.320956522 C14.9778261,0.320956522 17.6224638,1.18965217 19.3969565,2.9655942 C21.1711594,4.7397971 22.0784058,7.00617391 22.0784058,9.80008696 C22.0784058,13.3131304 20.5668116,16.4853043 17.2810145,18.1473333 L22.4291304,27.2493623 Z M169.658986,17.1050145 L167.015797,8.83573913 L164.259565,17.1050145 L169.658986,17.1050145 Z M179.284493,28.3195072 L173.47029,28.3195072 C173.179565,28.3195072 172.921884,28.1311014 172.833768,27.854 L171.358116,23.2218261 L162.484783,23.2218261 L160.973478,27.8583478 C160.883913,28.1334203 160.627391,28.3195072 160.338116,28.3195072 L154.491159,28.3195072 C154.027101,28.3195072 153.704203,27.858058 153.863623,27.4218261 L163.57029,0.854289855 C163.666522,0.590811594 163.917246,0.415449275 164.197826,0.415449275 L169.82942,0.415449275 C170.112319,0.415449275 170.364493,0.59342029 170.458986,0.859797101 L179.914058,27.4270435 C180.06913,27.8621159 179.746232,28.3195072 179.284493,28.3195072 L179.284493,28.3195072 Z M150.036377,0.415449275 L144.273768,0.415449275 C143.904783,0.415449275 143.605652,0.71457971 143.605652,1.08356522 L143.605652,27.6511014 C143.605652,28.0203768 143.904783,28.3195072 144.273768,28.3195072 L150.036377,28.3195072 C150.405362,28.3195072 150.704783,28.0203768 150.704783,27.6511014 L150.704783,1.08356522 C150.704783,0.71457971 150.405362,0.415449275 150.036377,0.415449275 L150.036377,0.415449275 Z M137.426232,0.415449275 L131.815217,0.415449275 C131.446232,0.415449275 131.147101,0.71457971 131.147101,1.08356522 L131.147101,15.5568986 L118.433478,0.649942029 C118.306522,0.501246377 118.120435,0.415449275 117.924783,0.415449275 L113.841884,0.415449275 C113.472899,0.415449275 113.173768,0.71457971 113.173768,1.08356522 L113.173768,27.6511014 C113.173768,28.0203768 113.472899,28.3195072 113.841884,28.3195072 L119.415507,28.3195072 C119.784493,28.3195072 120.083623,28.0203768 120.083623,27.6511014 L120.083623,13.3667536 L132.57058,28.0835652 C132.697536,28.2331304 132.883913,28.3195072 133.080145,28.3195072 L137.426232,28.3195072 C137.795507,28.3195072 138.094638,28.0203768 138.094638,27.6511014 L138.094638,1.08356522 C138.094638,0.71457971 137.795507,0.415449275 137.426232,0.415449275 L137.426232,0.415449275 Z M107.787101,0.415449275 L88.2917391,0.415449275 L88.2917391,28.3195072 L107.74913,28.3195072 C108.118116,28.3195072 108.417246,28.0203768 108.417246,27.6511014 L108.417246,22.4551594 C108.417246,22.0861739 108.118116,21.7870435 107.74913,21.7870435 L95.3905797,21.7870435 L95.3905797,17.558058 L106.805072,17.558058 C107.174348,17.558058 107.473478,17.2589275 107.473478,16.8896522 L107.473478,11.7316812 C107.473478,11.3626957 107.174348,11.0635652 106.805072,11.0635652 L95.3905797,11.0635652 L95.3905797,6.94762319 L107.787101,6.94762319 C108.156087,6.94762319 108.455217,6.64849275 108.455217,6.27921739 L108.455217,1.08356522 C108.455217,0.71457971 108.156087,0.415449275 107.787101,0.415449275 L107.787101,0.415449275 Z M78.9665217,12.574 C78.2491304,12.2716812 77.154058,11.8563188 75.7572464,11.3655942 L73.3027536,10.4592174 C71.83,9.89313043 71.0749275,9.21342029 71.0749275,8.38269565 C71.0749275,7.36298551 72.1323188,6.57023188 74.0578261,6.57023188 C75.9447826,6.57023188 78.3427536,7.32182609 80.0175362,8.44965217 C80.3375362,8.66472464 80.7697101,8.58066667 80.9711594,8.25197101 L83.5668116,4.01544928 C83.7430435,3.72791304 83.6810145,3.34878261 83.4134783,3.14327536 C80.6876812,1.04762319 77.5526087,8.69565217e-05 73.9447826,8.69565217e-05 C70.885942,8.69565217e-05 68.394058,0.830521739 66.4682609,2.45428986 C64.5427536,4.07805797 63.5607246,6.15486957 63.5607246,8.60907246 C63.5607246,11.8186377 65.1088406,14.2354493 68.1676812,15.8589275 C68.9604348,16.2742899 70.1688406,16.7273333 71.7169565,17.2937101 L74.2088406,18.1244348 C75.7192754,18.6908116 76.4746377,19.4082029 76.4746377,20.2766087 C76.4746377,21.5983478 75.0395652,22.3157391 73.3404348,22.3157391 C70.6256522,22.3157391 68.1673913,21.3209565 65.9656522,19.331971 C65.6662319,19.0612464 65.1972464,19.1157391 64.9688406,19.4484928 L62.1656522,23.5342899 C61.9882609,23.7928406 62.0105797,24.1438551 62.2288406,24.3690725 C65.0876812,27.3189275 68.776087,28.8105217 73.2271014,28.8105217 C76.5876812,28.8105217 79.2685507,27.9797971 81.27,26.3183478 C83.2711594,24.6189275 84.2908696,22.5044348 84.2908696,19.8992174 C84.2908696,16.5383478 82.516087,14.0841449 78.9665217,12.574 L78.9665217,12.574 Z M58.7407246,0.415449275 L39.2453623,0.415449275 L39.2453623,28.3195072 L58.7027536,28.3195072 C59.0717391,28.3195072 59.3708696,28.0203768 59.3708696,27.6511014 L59.3708696,22.4551594 C59.3708696,22.0861739 59.0717391,21.7870435 58.7027536,21.7870435 L46.3442029,21.7870435 L46.3442029,17.558058 L57.7586957,17.558058 C58.127971,17.558058 58.4271014,17.2589275 58.4271014,16.8896522 L58.4271014,11.7316812 C58.4271014,11.3626957 58.127971,11.0635652 57.7586957,11.0635652 L46.3442029,11.0635652 L46.3442029,6.94762319 L58.7407246,6.94762319 C59.1097101,6.94762319 59.4088406,6.64849275 59.4088406,6.27921739 L59.4088406,1.08356522 C59.4088406,0.71457971 59.1097101,0.415449275 58.7407246,0.415449275 L58.7407246,0.415449275 Z M33.7331884,1.08356522 L33.7331884,27.6511014 C33.7331884,28.0203768 33.434058,28.3195072 33.0650725,28.3195072 L27.3027536,28.3195072 C26.9337681,28.3195072 26.6346377,28.0203768 26.6346377,27.6511014 L26.6346377,1.08356522 C26.6346377,0.71457971 26.9337681,0.415449275 27.3027536,0.415449275 L33.0650725,0.415449275 C33.434058,0.415449275 33.7331884,0.71457971 33.7331884,1.08356522 L33.7331884,1.08356522 Z" id="Fill-1" fill="#FFFFFF" mask="url(#mask-2)"></path>
            </g>
        </g>
    </g>
</svg>